<svg xmlns="http://www.w3.org/2000/svg" viewBox="0 0 439.5 439.5">
  <path fill="#EAB932" d="M374 290.7v101h-83v-101h54.4"/>
  <path fill="#FFD039" d="M204 183.8V322H0v43c28.2-28.3 73.8-28.3 102 0 28.2-28.3 74-28.3 102 0v26.5h35.4V259h19.3v-75.3H204z"/>
  <path fill="#EAB932" d="M204 190.4h55v23h-55z"/>
  <path fill="#3B9DFF" d="M415 148c2 2 3.4 4.8 3.4 8 0 6.2-5 11.3-11.4 11.3h-39c-3.3 0-6-1.3-8.2-3.4-2-2-3.3-5-3.3-8 0-7 5-12 11.4-12h-43c-3 0-6-1-8-4-2-2-4-5-4-8 0-6.7 5-11.8 11-11.8h66c3 0 6 1.3 8 3.3s3 5 3 8c0 6.3-5 11.4-11.7 11.4h17c3 0 6 1.3 8 3.4zM159.7 89.2c2.8 2.8 4.5 6.6 4.5 11 0 8.3-7 15.2-15.4 15.2H60c-4 0-8-1.7-10.8-4.5-2.8-3-4.5-7-4.5-11 0-9 7-16 15.4-16H38c-4.4 0-8.2-2-11-5-2.8-3-4.5-7-4.5-11 0-8 7-15 15.5-15h53c4 0 8 1.2 10.7 4 2.8 3 4.5 6.6 4.5 11 0 8.3-7 15.2-15.3 15.2h57c4 0 8 1.7 11 4.5z"/>
  <path fill="#CCC" d="M231.4 21.7l16 53.5-17.7 9.6-14.4-9.6"/>
  <path fill="#FFD039" d="M247.5 75.2v27l-16.3 6.6-16-6.7V76"/>
  <path fill="#CCC" d="M247.5 102l13.8 24-30.6 6.8-29.2-6.7 13.8-24"/>
  <path fill="#FFD039" d="M266 130.7v55c0 2.6-2 4.7-4.7 4.7h-59.7c-2.6 0-4.7-2-4.7-4.7v-55c0-2.5 2-4.6 4-4.6h60c2 0 4 3 4 5zM425.4 259v132.7h-58V259H406"/>
  <path fill="#EAB932" d="M258.7 208.6V259l-5.5 127-13.8 6H228V208.5"/>
  <path fill="#FFD039" d="M297.4 290.7v101h-58V259h58"/>
  <path fill="#EAB932" d="M107 401.6H97v-89c0-2.8 2.3-5 5-5 2.8 0 5 2.2 5 5v89z"/>
  <path fill="#FFD039" d="M244 266.6c-2.6 0-4.6-2-4.6-4.5v-32c0-2 2-4 4.5-4s4 2 4 5v32c0 3-2 5-5 5zm49 0c-2.6 0-4.6-2-4.6-4.5v-32c0-2 2-4 4.5-4s4 2 4 5v32c0 3-2 5-5 5z"/>
  <path fill="#666" d="M258.7 311c-2.5 0-4.5-2-4.5-4.5V282c0-2.4 2-4.4 4.5-4.4s4.5 2 4.5 4.5v25c0 3-2 5-4.5 5zm19.3 0c-2.4 0-4.4-2-4.4-4.5V282c0-2.4 2-4.4 4.5-4.4s5 2 5 4.5v25c0 3-2 5-4 5zm-19.3 56.6c-2.5 0-4.5-2-4.5-4.5v-24c0-2 2-4 4.5-4s4.5 2 4.5 5v24c0 3-2 5-4.5 5zm19.3 0c-2.4 0-4.4-2-4.4-4.5v-24c0-2 2-4 4.5-4s5 2 5 5v24c0 3-2 5-4 5z"/>
  <path fill="#FFD039" d="M276.6 266.6c-2.5 0-4.5-2-4.5-4.5v-19c0-2 2-4 5-4s5 2 5 5v19c0 3-2 5-4 5zm-16.4 0c-2.5 0-4.5-2-4.5-4.5v-19c0-2 2-4 4.5-4s4.5 2 4.5 5v19c0 3-2 5-4.5 5zm111.8 0c-2.6 0-4.6-2-4.6-4.5v-32c0-2 2-4 4.5-4s4 2 4 5v32c0 3-2 5-5 5zm49 0c-2.6 0-4.6-2-4.6-4.5v-32c0-2 2-4 4.5-4s4 2 4 5v32c0 3-2 5-5 5zm-16.4 0c-2.5 0-4.5-2-4.5-4.5v-19c0-2 2-4 5-4s5 2 5 5v19c0 3-2 5-4 5zm-16.4 0c-2.5 0-4.5-2-4.5-4.5v-19c0-2 2-4 4.5-4s4.5 2 4.5 5v19c0 3-2 5-4.5 5z"/>
  <path fill="#666" d="M386.7 311c-2.5 0-4.5-2-4.5-4.5V282c0-2.4 2-4.4 4.5-4.4s4.5 2 4.5 4.5v25c0 3-2 5-4.5 5zm19.3 0c-2.4 0-4.4-2-4.4-4.5V282c0-2.4 2-4.4 4.5-4.4s5 2 5 4.5v25c0 3-2 5-4 5zm-19.3 56.6c-2.5 0-4.5-2-4.5-4.5v-24c0-2 2-4 4.5-4s4.5 2 4.5 5v24c0 3-2 5-4.5 5zm19.3 0c-2.4 0-4.4-2-4.4-4.5v-24c0-2 2-4 4.5-4s5 2 5 5v24c0 3-2 5-4 5z"/>
  <path fill="#EAB932" d="M321.4 297.7c-2.5 0-4.5-2-4.5-4.5V276c0-2.6 2-4.6 4-4.6s4 2 4 4.5v17c0 2-2 4-5 4zm22 0c-2.5 0-4.5-2-4.5-4.5V276c0-2.6 2-4.6 4-4.6s4 2 4 4.5v17c0 2-2 4-5 4z"/>
  <path fill="#666" d="M321.4 369.2c-2.5 0-4.5-2-4.5-4.5V318c0-2.4 2-4.4 4-4.4s4 2 4 4.5v47c0 3-2 5-5 5zm22 0c-2.5 0-4.5-2-4.5-4.5V318c0-2.4 2-4.4 4-4.4s4 2 4 4.5v47c0 3-2 5-5 5z"/>
  <circle cx="231.4" cy="158.2" r="21.4" fill="gray"/>
  <path fill="#CCC" d="M183 389.3h256.5v28.5H183z"/>
  <path fill="#B3B3B3" d="M183 405.3h256.5v12.5H183z"/>
  <path fill="#3B9DFF" d="M183 389.3v28.4H0v-23.4c20.3 0 20.3-10 40.7-10 20.3 0 20.3 10 40.7 10 20.3 0 20.3-10 40.6-10 20.4 0 20.4 10 40.7 10 10.2 0 15.3-2.6 20.4-5z"/>
  <path fill="#1E79C4" d="M0 405.3h183v12.5H0z"/>
</svg>
